<svg viewBox="0 0 171 40" xmlns="http://www.w3.org/2000/svg" xmlns:xlink="http://www.w3.org/1999/xlink" class="wordmark-white-svg">
    <g fill="#fff" fill-rule="evenodd">
    <path d="M51.12 19.017c-5.429-2.603-11.914-.259-14.485 5.237a11.138 11.138 0 00-.817 2.46l6.312 3.027a4.487 4.487 0 01.354-2.681c1.041-2.225 3.666-3.175 5.864-2.12 2.198 1.054 3.136 3.712 2.094 5.937-1.034 2.21-3.631 3.16-5.82 2.139l-11.655-5.59.003-.005-.026-.012 5.739-12.266c2.129-5.362-.21-11.541-5.437-14.048-5.428-2.604-11.912-.26-14.484 5.236-2.572 5.496-.256 12.062 5.172 14.665.792.38 1.607.652 2.43.827l2.99-6.39a4.331 4.331 0 01-2.649-.359c-2.197-1.054-3.135-3.712-2.094-5.937s3.667-3.175 5.865-2.12c2.183 1.047 3.12 3.677 2.112 5.893l-5.476 11.702-12.186-5.844c-5.296-2.156-11.4.212-13.876 5.504-2.572 5.495-.256 12.061 5.172 14.665 5.428 2.604 11.913.26 14.485-5.236.375-.803.643-1.628.816-2.46l-6.312-3.028c.154.88.052 1.813-.354 2.682-1.04 2.225-3.667 3.174-5.864 2.12-2.198-1.054-3.135-3.713-2.094-5.938 1.034-2.21 3.631-3.16 5.82-2.138l11.63 5.578-.002.005 5.833 2.797 12.235 5.868c5.296 2.156 11.4-.213 13.876-5.504 2.572-5.496.256-12.062-5.172-14.666M60 21.55c0-5.402 4.33-9.55 9.742-9.55 3.4 0 6.366 1.536 8.221 4.327.594.947 1.082 1.97 1.237 3.072h-4.974c-.747-1.894-2.422-3.251-4.484-3.251-3.041 0-5 2.559-5 5.402 0 2.84 1.959 5.503 5 5.503 2.112 0 3.66-1.305 4.484-3.124H79.2c-1.082 4.378-4.897 7.271-9.38 7.271-5.413 0-9.82-4.174-9.82-9.65M80.8 12h4.798v14.873H91.2V31.2H80.8zM97.456 21.524c0 2.97 1.963 5.503 5.007 5.503 2.895 0 4.882-2.61 4.882-5.427 0-2.867-1.987-5.479-4.957-5.479-2.97 0-4.932 2.483-4.932 5.403m-4.656.255c0-1.356.227-2.661.73-3.943a7.262 7.262 0 011.183-2.046c1.86-2.51 4.554-3.79 7.675-3.79 5.31 0 9.612 4.121 9.612 9.6 0 5.453-4.301 9.6-9.638 9.6-5.16 0-9.562-4.07-9.562-9.421M131.2 12V31.2h-10.179c-2.01-.052-4.122-.59-5.49-2.048-1.726-1.844-1.931-3.482-1.931-5.887V12h4.922v11.265c0 1.714.282 3.634 2.5 3.634h5.847V12h4.331zM137.753 16.3V26.9h2.124c3.422 0 4.77-2.175 4.77-5.299 0-3.046-1.426-5.3-4.718-5.3h-2.176zM132.8 31.2V12h6.43c3.526 0 6.375.564 8.579 3.584 1.27 1.715 1.791 3.84 1.791 5.966 0 6.271-3.63 9.65-10.008 9.65H132.8zM155.293 39.83l8.344-15.12a8.798 8.798 0 00.716-1.601c.193-.573.29-1.068.29-1.486 0-1.117-.36-2.037-1.082-2.754-.722-.714-1.625-1.075-2.705-1.075-1.081 0-1.984.36-2.704 1.075-.722.717-1.083 1.637-1.083 2.754 0 2.555 1.352 3.908 4.056 4.064l-2.743 5.159c-2.111-.523-3.811-1.635-5.098-3.342-1.29-1.705-1.932-3.666-1.932-5.881 0-1.378.23-2.654.695-3.829a9.177 9.177 0 011.969-3.065 8.683 8.683 0 013.034-2.012c1.172-.469 2.44-.704 3.806-.704 1.391 0 2.665.235 3.824.704a8.898 8.898 0 013.033 2.012 8.79 8.79 0 011.972 3.065c.451 1.175.675 2.451.675 3.829 0 .94-.199 1.954-.598 3.049-.4 1.093-.922 2.24-1.565 3.437l-6.337 11.72h-6.567z"/>
  </g>
</svg>
